<svg width="24" height="27" viewBox="0 0 24 27" fill="none" xmlns="http://www.w3.org/2000/svg">
<g clip-path="url(#clip0)">
<path d="M21.4286 1.63623H2.57143C1.88944 1.63623 1.23539 1.89483 0.753154 2.35515C0.270918 2.81547 0 3.43979 0 4.09078L0 22.0908C0 22.7418 0.270918 23.3661 0.753154 23.8264C1.23539 24.2867 1.88944 24.5453 2.57143 24.5453H9.92411V16.7567H6.54911V13.0908H9.92411V10.2967C9.92411 7.11856 11.9063 5.36305 14.9421 5.36305C16.3961 5.36305 17.9164 5.61055 17.9164 5.61055V8.72987H16.2413C14.5907 8.72987 14.0759 9.70759 14.0759 10.7104V13.0908H17.7605L17.1712 16.7567H14.0759V24.5453H21.4286C22.1106 24.5453 22.7646 24.2867 23.2468 23.8264C23.7291 23.3661 24 22.7418 24 22.0908V4.09078C24 3.43979 23.7291 2.81547 23.2468 2.35515C22.7646 1.89483 22.1106 1.63623 21.4286 1.63623Z" fill="#70A0C2"/>
</g>
<defs>
<clipPath id="clip0">
<rect width="24" height="26.1818" fill="white"/>
</clipPath>
</defs>
</svg>
