<svg width="176" height="188" viewBox="0 0 176 188" fill="none" xmlns="http://www.w3.org/2000/svg">
<g clip-path="url(#clip0)" filter="url(#filter0_d)">
<path d="M118.021 85.8557C116.662 85.8557 115.56 84.7536 115.56 83.3941V45.9246C115.56 44.5651 116.662 43.4634 118.021 43.4634C119.381 43.4634 120.482 44.5654 120.482 45.9246V83.3944C120.483 84.7536 119.381 85.8557 118.021 85.8557Z" fill="#82BE50"/>
<path d="M78.1956 60.209C76.0812 60.209 74.0083 59.1767 72.7629 57.2761C70.7994 54.2793 71.6372 50.2578 74.6343 48.2943L98.1527 32.8857L98.2994 10.4453C98.3221 6.87684 101.222 4 104.785 4C104.799 4 104.814 4 104.828 4.00034C108.411 4.02372 111.297 6.94731 111.273 10.5299L111.104 36.4486C111.09 38.6211 109.989 40.6424 108.172 41.8328L81.7448 59.1475C80.6489 59.8656 79.4152 60.209 78.1956 60.209Z" fill="#FFB69E"/>
<path d="M59.9198 179.775C55.4651 178.72 52.7082 174.254 53.7629 169.799L61.2301 138.254V105.453C61.2301 100.875 64.9413 97.1636 69.5193 97.1636C74.097 97.1636 77.8085 100.875 77.8085 105.453V139.222C77.8085 139.865 77.7339 140.505 77.5858 141.131L69.8957 173.618C68.8425 178.066 64.3806 180.831 59.9198 179.775Z" fill="#FFB69E"/>
<path d="M86.5594 172.062L85.1084 137.996L77.0499 107.576C75.8777 103.15 78.5142 98.6129 82.94 97.4404C87.3655 96.2685 91.9033 98.9054 93.0752 103.331L101.364 134.621C101.518 135.2 101.608 135.793 101.633 136.391L103.123 171.356C103.318 175.93 99.768 179.796 95.194 179.991C90.6094 180.184 86.7539 176.627 86.5594 172.062Z" fill="#FFB69E"/>
<path d="M94.436 48.0298C93.6626 43.8027 90.2351 40.7471 86.2514 40.7471C81.1212 40.7471 77.5129 40.7471 71.819 40.7471C67.827 40.7471 64.4095 43.7937 63.6343 48.0298L50.8771 117.752C50.4402 120.139 52.1417 122.339 54.3568 122.339H103.714C105.95 122.339 107.628 120.126 107.193 117.752L94.436 48.0298Z" fill="#FF6473"/>
<path d="M79.0354 35.4287C86.9419 35.4287 93.3515 29.0191 93.3515 21.1125C93.3515 13.2059 86.9419 6.79639 79.0354 6.79639C71.1288 6.79639 64.7192 13.2059 64.7192 21.1125C64.7192 29.0191 71.1288 35.4287 79.0354 35.4287Z" fill="#FFB69E"/>
<path d="M127.126 62.298C126.343 58.8014 122.872 56.6024 119.378 57.3848L97.6583 62.2485L92.8214 57.1934L84.6488 58.4322L83.3528 66.0655L90.8153 73.8649C92.3711 75.4905 94.6798 76.2117 96.9203 75.7105L122.213 70.0469C125.709 69.2635 127.909 65.7943 127.126 62.298Z" fill="#FFB69E"/>
<path d="M92.8214 57.1925L81.0205 44.8588C78.5434 42.2704 74.4373 42.1793 71.8482 44.6567C69.2594 47.1337 69.1687 51.2402 71.6458 53.8289L83.3532 66.0647L92.8214 57.1925Z" fill="#FF4A5B"/>
<path d="M145.453 81.0981C143.087 81.0981 141.007 82.3164 139.799 84.1582C138.592 82.3167 136.512 81.0981 134.145 81.0981C130.412 81.0981 127.385 84.1249 127.385 87.8587C127.385 94.2256 139.799 101.282 139.799 101.282C139.799 101.282 152.214 94.0201 152.214 87.8587C152.214 84.1249 149.187 81.0981 145.453 81.0981Z" fill="#E64937"/>
<path d="M23.4389 53.7866C21.3843 53.7866 19.5793 54.8443 18.5312 56.4428C17.4828 54.8443 15.6778 53.7866 13.6232 53.7866C10.3823 53.7866 7.755 56.4139 7.755 59.6548C7.755 65.1816 18.5312 71.3069 18.5312 71.3069C18.5312 71.3069 29.3071 65.0032 29.3071 59.6548C29.3071 56.4139 26.6798 53.7866 23.4389 53.7866Z" fill="#E64937"/>
<path d="M158.571 6.20898C155.91 6.20898 153.572 7.57883 152.214 9.64992C150.855 7.57917 148.517 6.20898 145.856 6.20898C141.658 6.20898 138.255 9.61245 138.255 13.8107C138.255 20.97 152.214 28.9044 152.214 28.9044C152.214 28.9044 166.173 20.739 166.173 13.8107C166.173 9.61211 162.769 6.20898 158.571 6.20898Z" fill="#E64937"/>
<path d="M37.8307 33.9794C36.1402 39.8015 27.5705 38.6341 27.4986 32.5721C21.6116 34.0192 18.3373 26.0137 23.5513 22.9206C19.3545 18.5457 24.6507 11.7075 29.9362 14.6764C31.6267 8.85435 40.1964 10.0217 40.2683 16.0838C46.1553 14.6366 49.4295 22.6422 44.2155 25.7352C48.4124 30.1101 43.1166 36.9483 37.8307 33.9794Z" fill="#FF6473"/>
<path d="M33.8838 19.7515C31.3562 19.7515 29.3071 21.8006 29.3071 24.3278C29.3071 26.8554 31.3562 28.9045 33.8838 28.9045C36.4114 28.9045 38.4605 26.8554 38.4605 24.3278C38.4601 21.8006 36.4114 19.7515 33.8838 19.7515Z" fill="#FFDA52"/>
<path d="M162.675 55.6213C161.627 59.2279 156.319 58.5047 156.274 54.7495C152.627 55.646 150.599 50.6868 153.829 48.7707C151.229 46.0606 154.51 41.8246 157.784 43.6636C158.831 40.057 164.14 40.7802 164.185 44.5354C167.831 43.6389 169.86 48.5981 166.63 50.5142C169.229 53.2243 165.949 57.4604 162.675 55.6213Z" fill="#64AFFF"/>
<path d="M160.229 52.4774C161.795 52.4774 163.064 51.2082 163.064 49.6425C163.064 48.0768 161.795 46.8076 160.229 46.8076C158.664 46.8076 157.395 48.0768 157.395 49.6425C157.395 51.2082 158.664 52.4774 160.229 52.4774Z" fill="#FFDA52"/>
<path d="M49.2683 75.3581C48.2213 78.9647 42.9124 78.2415 42.868 74.4864C39.2212 75.3829 37.1927 70.4236 40.4229 68.5075C37.8232 65.7974 41.1039 61.5614 44.3781 63.4004C45.4252 59.7938 50.7341 60.5171 50.7784 64.2722C54.4252 63.3757 56.4537 68.335 53.2235 70.251C55.8233 72.9612 52.5425 77.1975 49.2683 75.3581Z" fill="#64AFFF"/>
<path d="M46.8229 72.2142C48.3886 72.2142 49.6578 70.945 49.6578 69.3793C49.6578 67.8137 48.3886 66.5444 46.8229 66.5444C45.2572 66.5444 43.988 67.8137 43.988 69.3793C43.988 70.945 45.2572 72.2142 46.8229 72.2142Z" fill="#FFDA52"/>
<path d="M124.413 31.5374L118.654 35.8573C118.279 36.1382 117.764 36.1382 117.389 35.8573L111.629 31.5374C110.934 31.0163 109.943 31.512 109.943 32.3807V41.1652C109.943 45.6267 113.56 49.2437 118.021 49.2437C122.483 49.2437 126.1 45.6267 126.1 41.1652V32.3807C126.1 31.512 125.108 31.0163 124.413 31.5374Z" fill="#E64937"/>
</g>
<defs>
<filter id="filter0_d" x="-6" y="0" width="188" height="188" filterUnits="userSpaceOnUse" color-interpolation-filters="sRGB">
<feFlood flood-opacity="0" result="BackgroundImageFix"/>
<feColorMatrix in="SourceAlpha" type="matrix" values="0 0 0 0 0 0 0 0 0 0 0 0 0 0 0 0 0 0 127 0"/>
<feOffset dy="2"/>
<feGaussianBlur stdDeviation="3"/>
<feColorMatrix type="matrix" values="0 0 0 0 0 0 0 0 0 0 0 0 0 0 0 0 0 0 0.25 0"/>
<feBlend mode="normal" in2="BackgroundImageFix" result="effect1_dropShadow"/>
<feBlend mode="normal" in="SourceGraphic" in2="effect1_dropShadow" result="shape"/>
</filter>
<clipPath id="clip0">
<rect width="176" height="176" fill="white" transform="translate(0 4)"/>
</clipPath>
</defs>
</svg>
