<svg width="40" height="40" viewBox="0 0 40 40" fill="none" xmlns="http://www.w3.org/2000/svg">
<circle cx="20" cy="20" r="20" fill="#E6CBB3"/>
<path d="M13.3333 22C13.3333 23.472 12.1393 24.6667 10.6667 24.6667C9.194 24.6667 8 23.472 8 22C8 20.5273 9.194 19.3333 10.6667 19.3333C12.1393 19.3333 13.3333 20.5273 13.3333 22ZM32 22C32 20.5273 30.806 19.3333 29.3333 19.3333C27.8607 19.3333 26.6667 20.5273 26.6667 22C26.6667 23.472 27.8607 24.6667 29.3333 24.6667C30.806 24.6667 32 23.472 32 22Z" fill="#FFCC80"/>
<path d="M10 17.3333C10 8.85 30 11.81 30 17.3333V24C30 29.524 25.5227 34 20 34C14.4773 34 10 29.524 10 24V17.3333Z" fill="#FFE0B2"/>
<path d="M31.2606 16.892C30.9446 12.91 29.5533 8.988 24.6666 8L23.3333 6H20C13.8473 6 8.66663 10.9873 8.66663 18V20.2667L10.6666 22.6667V18.6667L24.6666 14L29.3333 18V22.6667L31.3333 20.2667V18C31.3333 17.624 31.3046 17.2553 31.2606 16.892Z" fill="#FF5722"/>
<path d="M26 22.6667C26 23.404 25.4033 24 24.6667 24C23.93 24 23.3333 23.404 23.3333 22.6667C23.3333 21.93 23.93 21.3333 24.6667 21.3333C25.4033 21.3333 26 21.93 26 22.6667ZM16.6667 22.6667C16.6667 21.93 16.0693 21.3333 15.3333 21.3333C14.596 21.3333 14 21.93 14 22.6667C14 23.404 14.596 24 15.3333 24C16.0693 24 16.6667 23.404 16.6667 22.6667Z" fill="#784719"/>
<path d="M16.6666 28.6667H23.3333C23.3333 28.6667 22 30.6667 20 30.6667C18 30.6667 16.6666 28.6667 16.6666 28.6667Z" fill="#FFAB91"/>
</svg>
