<svg width="40" height="40" viewBox="0 0 40 40" fill="none" xmlns="http://www.w3.org/2000/svg">
<circle cx="20" cy="20" r="20" fill="#BDD0DB"/>
<path d="M27.3333 33.3333C27.3333 33.3333 23.3333 32 20 32C16.6666 32 12.6666 33.3333 12.6666 33.3333V25.3333H27.3333V33.3333Z" fill="#BF360C"/>
<path d="M13.3333 22.6667C13.3333 24.1393 12.1393 25.3333 10.6667 25.3333C9.194 25.3333 8 24.1393 8 22.6667C8 21.194 9.194 20 10.6667 20C12.1393 20 13.3333 21.194 13.3333 22.6667ZM32 22.6667C32 24.1393 30.806 25.3333 29.3333 25.3333C27.8607 25.3333 26.6667 24.1393 26.6667 22.6667C26.6667 21.194 27.8607 20 29.3333 20C30.806 20 32 21.194 32 22.6667Z" fill="#FFA726"/>
<path d="M29.3333 16C29.3333 7.51668 10.6666 10.4773 10.6666 16V22C10.6666 27.5227 14.846 32 20 32C25.154 32 29.3333 27.5227 29.3333 22V16Z" fill="#FFB74D"/>
<path d="M25.3333 21.3333C25.3333 22.07 24.7366 22.6667 24 22.6667C23.2633 22.6667 22.6666 22.07 22.6666 21.3333C22.6666 20.5967 23.2633 20 24 20C24.7366 20 25.3333 20.5967 25.3333 21.3333ZM17.3333 21.3333C17.3333 22.07 16.7366 22.6667 16 22.6667C15.2633 22.6667 14.6666 22.07 14.6666 21.3333C14.6666 20.5967 15.2633 20 16 20C16.7366 20 17.3333 20.5967 17.3333 21.3333Z" fill="#784719"/>
<path d="M20 6.66666C14.33 6.66666 5.99996 9.99999 5.91663 28L12.6666 33.3333V20L23.8333 14L27.25 18.6667L27.3333 33.3333L34 28C34 20 33.638 8.66666 24 8.66666L22.6666 6.66666H20Z" fill="#FF5722"/>
<path d="M16.6666 27.3333H23.3333C23.3333 27.3333 22 29.3333 20 29.3333C18 29.3333 16.6666 27.3333 16.6666 27.3333Z" fill="#FB8C00"/>
</svg>
