<svg width="40" height="40" viewBox="0 0 40 40" fill="none" xmlns="http://www.w3.org/2000/svg">
<circle cx="20" cy="20" r="20" fill="#DB8370"/>
<path d="M13.3333 22C13.3333 23.4727 12.1393 24.6667 10.6667 24.6667C9.194 24.6667 8 23.4727 8 22C8 20.5273 9.194 19.3333 10.6667 19.3333C12.1393 19.3333 13.3333 20.5273 13.3333 22ZM32 22C32 23.4727 30.806 24.6667 29.3333 24.6667C27.8607 24.6667 26.6667 23.4727 26.6667 22C26.6667 20.5273 27.8607 19.3333 29.3333 19.3333C30.806 19.3333 32 20.5273 32 22Z" fill="#FFA726"/>
<path d="M10 17.3333C10 8.84999 30 11.8107 30 17.3333V24C30 29.5227 25.5227 34 20 34C14.4773 34 10 29.5227 10 24V17.3333Z" fill="#FFB74D"/>
<path d="M31.2607 16.892C30.9447 12.91 29.5534 8.988 24.6667 8L23.3334 6H20.0001C13.8481 6 8.66675 10.9867 8.66675 18V20.2667L10.6667 22.6667V18.6667L24.6667 14L29.3334 18V22.6667L31.3334 20.2667V18C31.3334 17.624 31.3047 17.2553 31.2607 16.892Z" fill="#424242"/>
<path d="M26 22.6667C26 23.4033 25.4033 24 24.6667 24C23.93 24 23.3333 23.4033 23.3333 22.6667C23.3333 21.93 23.93 21.3333 24.6667 21.3333C25.4033 21.3333 26 21.93 26 22.6667ZM16.6667 22.6667C16.6667 23.4033 16.07 24 15.3333 24C14.5967 24 14 23.4033 14 22.6667C14 21.93 14.5967 21.3333 15.3333 21.3333C16.07 21.3333 16.6667 21.93 16.6667 22.6667Z" fill="#784719"/>
<path d="M16.6667 28.6667H23.3334C23.3334 28.6667 22.0001 30.6667 20.0001 30.6667C18.0001 30.6667 16.6667 28.6667 16.6667 28.6667Z" fill="#FB8C00"/>
</svg>
